<svg width="154" height="154" viewBox="0 0 154 154" fill="none" xmlns="http://www.w3.org/2000/svg">
<rect opacity="0.3" width="154" height="154" rx="77" fill="white"/>
<rect x="16" y="16" width="122" height="122" rx="61" fill="white"/>
<path d="M78.9611 63.3208L71.4173 58.0554C70.8353 57.6491 70.153 57.4101 69.4447 57.3645C68.7363 57.3188 68.029 57.4683 67.3996 57.7965C66.7703 58.1247 66.2429 58.6192 65.875 59.2262C65.507 59.8332 65.3124 60.5295 65.3125 61.2393V91.8445C65.3124 92.5543 65.507 93.2506 65.875 93.8576C66.2429 94.4645 66.7703 94.959 67.3996 95.2873C68.029 95.6155 68.7363 95.7649 69.4447 95.7193C70.153 95.6736 70.8353 95.4347 71.4173 95.0284L78.9611 89.7629L93.3397 79.7249C93.8523 79.3671 94.271 78.8909 94.56 78.3366C94.8491 77.7824 95 77.1665 95 76.5414C95 75.9163 94.8491 75.3004 94.56 74.7462C94.271 74.1919 93.8523 73.7157 93.3397 73.3579L78.9611 63.3208Z" fill="#FA002C" stroke="white" stroke-width="3"/>
</svg>
